PathFileType	4	(X/Y/Z)	./resultDataOpenSim/trcMotMarkerGrf/sub09/qtm-02-02.trc
DataRate	CameraRate	NumFrames	NumMarkers	Units	OrigDataRate	OrigDataStartFrame	OrigNumFrames
250.000000	250.000000	8	24	m	250.000000	1	484
Frame#	Time	L.Toe.Tip			R.Toe.Tip			L.Ankle.Lat			R.Ankle.Lat			L.Ankle.Med			R.Ankle.Med			L.Heel			R.Heel			L.Knee.Lat			R.Knee.Lat			L.Knee.Med			R.Knee.Med			L.Thigh.Upper			R.Thigh.Upper			L.ASIS			R.ASIS			V.Sacral			L.Acromium			R.Acromium			C7			L.Elbow			R.Elbow			L.Wrist.Lat			R.Wrist.Lat
		X1	Y1	Z1	X2	Y2	Z2	X3	Y3	Z3	X4	Y4	Z4	X5	Y5	Z5	X6	Y6	Z6	X7	Y7	Z7	X8	Y8	Z8	X9	Y9	Z9	X10	Y10	Z10	X11	Y11	Z11	X12	Y12	Z12	X13	Y13	Z13	X14	Y14	Z14	X15	Y15	Z15	X16	Y16	Z16	X17	Y17	Z17	X18	Y18	Z18	X19	Y19	Z19	X20	Y20	Z20	X21	Y21	Z21	X22	Y22	Z22	X23	Y23	Z23	X24	Y24	Z24

1	0	-1.4821531	0.036754326	-0.040135538	-0.9192545	0.091842217	0.065509799	-1.6332714	0.075975461	-0.07191408	-1.0681112	0.069473391	0.099301317	-1.6052114	0.094544202	0.020658612	-1.0643501	0.10902224	0.0084111007	NaN	NaN	NaN	-1.1193562	0.029635768	0.046182658	-1.4946121	0.47018642	-0.13702078	-1.1549802	0.520746	0.14260785	-1.4936386	0.47246627	-0.011262047	-1.1587841	0.50039634	0.015691094	-1.3898822	0.87935956	-0.18449369	-1.3575042	0.8713716	0.18478693	-1.2858752	0.95291027	-0.13005764	-1.2783336	0.95542296	0.10997761	-1.4462912	1.0161236	-0.0010341588	-1.2577069	1.4064287	-0.16778545	-1.3007279	1.41828	0.158303	-1.3399725	1.4648002	-0.0078901699	-1.3692962	1.0480351	-0.24435593	-1.4538585	1.0919518	0.25360445	-1.1389015	0.90418468	-0.20735225	-1.3282273	0.8523782	0.28196325
2	0.004	-1.4820618	0.036685362	-0.040108693	-0.90267269	0.096582993	0.066151295	-1.6330134	0.076584922	-0.071528738	-1.0516824	0.070203809	0.099522147	-1.6045011	0.095051909	0.02096581	-1.0487947	0.10973318	0.0086792423	NaN	NaN	NaN	-1.1018113	0.02881773	0.046504371	-1.491478	0.46989554	-0.13697229	-1.1494622	0.51908198	0.14296136	-1.4907791	0.47226977	-0.011172135	-1.1524885	0.4986926	0.015740345	-1.3842132	0.87811259	-0.1843843	-1.3516541	0.86967006	0.18475763	-1.2798924	0.95149767	-0.13006118	-1.2721179	0.95398349	0.11005331	-1.4402494	1.0144522	-0.0010391872	-1.2519417	1.4050864	-0.16753538	-1.2951244	1.4167911	0.15850802	-1.3345312	1.4634562	-0.007641125	-1.3626743	1.0462404	-0.24424344	-1.4475232	1.0907501	0.25450699	-1.1313858	0.90396807	-0.20670036	-1.3227447	0.85071693	0.28225796
3	0.008	-1.48197	0.036617732	-0.040079635	-0.88666391	0.10123866	0.066754821	-1.6327197	0.077222067	-0.071179585	-1.0354866	0.071012263	0.099719191	-1.6037986	0.095532686	0.021246035	-1.0334816	0.11052213	0.0089024102	NaN	NaN	NaN	-1.0845133	0.028162643	0.046857605	-1.4882684	0.4695754	-0.13691755	-1.1437215	0.51744189	0.14326293	-1.4876617	0.47209062	-0.011079208	-1.1462209	0.49700839	0.015820898	-1.3785326	0.87685307	-0.18428068	-1.3456701	0.86797084	0.18473241	-1.2739197	0.95007016	-0.13008066	-1.2659137	0.95253196	0.11011022	-1.4342096	1.0127501	-0.0010163734	-1.2461523	1.4037359	-0.16727183	-1.2895724	1.4152783	0.15872913	-1.3291271	1.4621025	-0.0074021868	-1.3560382	1.0444451	-0.24411217	-1.4414036	1.0893434	0.2551109	-1.1238914	0.90375165	-0.20606823	-1.3172595	0.84904218	0.28253779
4	0.012	-1.4818817	0.036550228	-0.040049976	-0.87140636	0.10578975	0.067320173	-1.6323811	0.077897731	-0.070886006	-1.0196749	0.071929304	0.099880299	-1.6031128	0.095989685	0.021471291	-1.0185392	0.11143077	0.009061458	NaN	NaN	NaN	-1.0676004	0.02773875	0.047271673	-1.4849347	0.46920565	-0.13685962	-1.137681	0.51583048	0.14352288	-1.4842419	0.47190922	-0.01095556	-1.1399882	0.49534281	0.015939872	-1.3728268	0.87558269	-0.18418215	-1.3395018	0.86625266	0.18471893	-1.2679427	0.94863241	-0.13011577	-1.2596738	0.95105635	0.11013952	-1.4281589	1.0110062	-0.00094469279	-1.2403151	1.4023709	-0.16698843	-1.2840405	1.4137305	0.15897079	-1.3237372	1.4607262	-0.007222245	-1.3493856	1.0426587	-0.24396493	-1.4356181	1.0875477	0.25515836	-1.11642	0.90351917	-0.20546253	-1.3117427	0.84734975	0.28280052
5	0.016	-1.4818008	0.036480596	-0.04002189	-0.85679884	0.11023101	0.067853868	-1.6320153	0.078605621	-0.070650989	-1.0042521	0.072971484	0.10003692	-1.6024367	0.096453952	0.021626376	-1.0040122	0.11245822	0.0091651345	NaN	NaN	NaN	-1.0511544	0.027528455	0.047742641	-1.4814658	0.46878659	-0.13680077	-1.1314099	0.5142495	0.14377765	-1.4806648	0.47167948	-0.010774134	-1.1337885	0.49368771	0.016081954	-1.367103	0.87431462	-0.18408155	-1.3331815	0.86449553	0.18471993	-1.2619479	0.94719684	-0.13016121	-1.2533647	0.94955993	0.11015119	-1.4220881	1.0092482	-0.00081771437	-1.2344328	1.4009923	-0.16669379	-1.278478	1.4121548	0.15923212	-1.3182905	1.4593207	-0.0071266823	-1.342735	1.0409055	-0.24381352	-1.4301244	1.0854026	0.25465458	-1.1089824	0.90323691	-0.20488351	-1.3061708	0.84564363	0.28305522
6	0.02	-1.4817257	0.03640839	-0.039993829	-0.8427262	0.11451232	0.068331768	-1.6316409	0.079343177	-0.070471981	-0.98896143	0.074229756	0.1002776	-1.601737	0.096959811	0.021716979	-0.98987806	0.11359219	0.0092236356	NaN	NaN	NaN	-1.0352542	0.027502275	0.048173824	-1.4778599	0.46834362	-0.13673918	-1.1250032	0.51271398	0.14403612	-1.4770296	0.47137522	-0.010557188	-1.1276034	0.49203928	0.016229348	-1.3613734	0.87305635	-0.1839702	-1.3267265	0.86270667	0.18473856	-1.2559327	0.94576624	-0.13022402	-1.2469941	0.94805316	0.11016362	-1.4159865	1.0075219	-0.00064125679	-1.2285168	1.399603	-0.16640043	-1.2728541	1.4105658	0.15951661	-1.31274	1.4578943	-0.0070905572	-1.336092	1.0391919	-0.24364102	-1.4247547	1.0831769	0.25386464	-1.1015926	0.90287118	-0.2043328	-1.3005488	0.84392463	0.28330867
7	0.024	-1.4816503	0.036335785	-0.039964998	-0.82917676	0.11854816	0.068720191	-1.631256	0.080121075	-0.070351114	-0.97352098	0.075818356	0.10064969	-1.6009792	0.097521545	0.021760478	-0.9761009	0.11482093	0.0092287978	NaN	NaN	NaN	-1.0199975	0.027644985	0.04840477	-1.4741187	0.46790528	-0.13668105	-1.1185102	0.51124457	0.1443001	-1.4732796	0.47100941	-0.010361478	-1.121397	0.49041259	0.016377261	-1.3556361	0.87180182	-0.18384073	-1.3201311	0.86090882	0.18478132	-1.2499008	0.94434109	-0.13031248	-1.2405799	0.94654457	0.11018217	-1.4098434	1.0058526	-0.00042876071	-1.2225753	1.3982051	-0.1661099	-1.2671535	1.4089764	0.1598225	-1.3071041	1.4564682	-0.0070763564	-1.3294505	1.037501	-0.24342141	-1.4193763	1.0810865	0.25302004	-1.0942624	0.90241253	-0.20381192	-1.2948979	0.84219717	0.28355941
8	0.028	-1.4815683	0.036265206	-0.039940697	-0.81619713	0.12226772	0.069011806	-1.6308397	0.080949743	-0.070295073	-0.95814539	0.077655365	0.10101057	-1.600165	0.098129109	0.021769875	-0.9627138	0.11611394	0.0091619675	NaN	NaN	NaN	-1.0054449	0.027919724	0.048337832	-1.4702511	0.46746784	-0.13664359	-1.1119305	0.50985343	0.14460141	-1.4693093	0.47060696	-0.010220278	-1.1151255	0.48885029	0.016536606	-1.3498748	0.87053841	-0.18368698	-1.3134205	0.85911663	0.18484503	-1.2438458	0.94292887	-0.13041914	-1.2341366	0.94504336	0.11020067	-1.4036504	1.004235	-0.00019518703	-1.2166155	1.3968058	-0.16581693	-1.2613794	1.4073944	0.16013809	-1.3014147	1.4550587	-0.0070399384	-1.3228106	1.0358256	-0.24316379	-1.4139279	1.0791591	0.25224229	-1.0869954	0.90188058	-0.20331648	-1.2892263	0.84047292	0.28380365
